<?xml version="1.0" encoding="utf-8"?>
<!-- Generator: Adobe Illustrator 26.1.0, SVG Export Plug-In . SVG Version: 6.00 Build 0)  -->
<svg version="1.1" id="Layer_1" xmlns="http://www.w3.org/2000/svg" xmlns:xlink="http://www.w3.org/1999/xlink" x="0px" y="0px"
	 viewBox="0 0 7336 1593" style="enable-background:new 0 0 7336 1593;" xml:space="preserve">
<style type="text/css">
	.st0{fill:#FFFFFF;}
	.st1{fill:url(#SVGID_1_);}
	.st2{fill:url(#SVGID_00000173153740016494459760000004353629645652460679_);}
	.st3{fill:url(#SVGID_00000024722038754609889450000014391791045866556841_);}
	.st4{fill:url(#SVGID_00000112614588491152856600000011330579700062751874_);}
</style>
<path class="st0" d="M2568.6,771.1l-170.5-368.7c-18-38.8-27.8-49.4-62.6-63.5V330h205.8v8.8c-48.7,15.2-56.2,28.2-40,64.1
	l133.9,296.4L2761,418.8c16.2-36.5,6.4-58.2-70.7-80V330h178.6v8.8c-29,14.1-38.8,24.7-56.9,63.5l-170.3,368.7H2568.6z
	 M3009.8,409.4c16.2-35.9,8.7-54.1-42.3-70.6V330H3120l170.5,368.7c18,38.8,26.1,49.4,51,63.5v8.8h-194.2v-8.8
	c48.7-15.3,56.2-28.2,40-64.1l-29-64.1h-209.3l-21.5,48.1c-16.2,36.5-6.4,58.2,70.8,80v8.8h-178.6v-8.8
	c29.6-17.6,42.9-32.9,61.4-73.5L3009.8,409.4z M2966.3,595.2h174.5l-87.5-193.4L2966.3,595.2z M3847.6,771.1h-60.3l-317.7-354.6
	v231.2c0,71.7,11,87.6,88.1,114.7v8.8h-184.4v-8.8c47.6-25.3,55.1-42.9,55.1-114.7V435.9c0-71.8-9.8-83.5-60.9-97V330h151.3
	l287.6,321.1V453.5c0-71.7-11-87.6-88.1-114.7V330h184.4v8.8c-47.4,25.3-55.1,42.9-55.1,114.7V771.1z M3966.4,771.1v-8.8
	c51-13.5,60.9-25.3,60.9-97V435.9c0-71.8-9.9-83.5-60.9-97V330h249.9c145,0,273.1,94.1,273.1,220.5c0,126.4-128.1,220.5-273.1,220.5
	L3966.4,771.1z M4120.1,732.3h93.4c100.3,0,171.6-55.9,171.6-181.7c0-125.9-71.3-181.7-171.6-181.7h-93.4V732.3z M4532.9,330h433.7
	l14.5,152.3h-8.7c-57.4-102.9-87.5-113.5-143.8-113.5h-142v156.4h92.2c26.7,0,40-7.1,82.3-83.5h8.7v205.9h-8.7
	c-42.3-76.4-55.7-83.5-82.3-83.5h-92.2v168.2h139.1c61.5,0,94.5-16.5,153.7-125.3h8.7l-15.7,164.1h-439.5v-8.8
	c51-13.5,60.9-25.3,60.9-97V435.9c0-71.8-9.9-83.5-60.9-97V330z M5286.6,762.2v8.8h-220.4v-8.8c51-13.5,60.9-25.3,60.9-97V435.9
	c0-71.8-9.8-83.5-60.9-97V330h251.1c146.1,0,218,41.8,218,113.5c0,51.8-52.8,89.4-143.8,99.4c60.9,9.4,88.1,38.8,113,95.2l32.5,74.1
	c13.9,31.8,20.3,38.8,47.4,50v8.8h-66.1c-52.2,0-69-14.1-85.8-60l-29.4-80c-20.9-56.5-38.3-68.2-90.5-68.2h-92.8v102.3
	C5219.9,737.6,5229.9,748.7,5286.6,762.2z M5433.9,446.5c0-55.3-39.4-77.6-122.3-77.6h-91.6v155.2h91.6
	C5394.4,524.1,5433.9,501.7,5433.9,446.5z M5861.2,771.1h-244.6v-8.8c49.8-13.5,58-25.3,58-97V435.9c0-71.8-9.8-83.5-60.9-97V330
	h238.8c145,0,216.8,42.3,216.8,106.4c0,55.9-52.8,91.8-147.3,99.4c107.3,7.1,168.7,54.1,168.7,113.5
	C6090.7,723.4,6014.2,771.1,5861.2,771.1L5861.2,771.1z M5847.3,521.7c80,0,120.6-22.4,120.6-76.4c0-54.1-40.6-76.4-120.6-76.4h-80
	v152.9H5847.3z M5857.1,732.3c88.1,0,129.3-25.3,129.3-85.9c0-60.6-41.1-85.9-129.3-85.9h-89.9v171.7H5857.1z M6357.5,771.1H6143
	v-8.8c51-13.5,60.9-25.3,60.9-97V435.9c0-71.8-9.9-83.5-60.9-97V330h214.5v8.8c-51,13.5-60.9,25.3-60.9,97v229.3
	c0,71.7,9.9,83.5,60.9,97V771.1z M6421.3,771.1v-8.8c51-13.5,60.9-25.3,60.9-97V435.9c0-71.8-9.8-83.5-60.9-97V330h220.2v8.8
	c-56.9,13.5-66.7,25.3-66.7,97v296.4h115.9c66.7,0,100.9-22.4,160.6-137h8.7l-16.8,175.9H6421.3z M6876.4,330h444.1l15.1,158.2h-8.7
	c-57.4-102.8-88.1-119.4-144.5-119.4h-37.7v296.4c0,72.3,9.9,83.5,66.7,97v8.8h-225.9v-8.8c56.9-13.5,66.7-24.7,66.7-97V368.8h-37.7
	c-56.2,0-87,16.5-144.4,119.4h-8.7L6876.4,330z"/>
<path class="st0" d="M2717,980.7h181.5v8.7c-46.4,25.3-52.2,42.9-52.2,114.7v144.1c0,115.8-71.9,179.4-204,179.4
	c-129.3,0-203.5-53.5-203.5-164.7v-176.4c0-71.7-9.9-83.5-60.9-97v-8.8h220.3v8.7c-56.8,13.5-66.7,25.3-66.7,97v176.4
	c0,92.3,51.6,122.3,136.8,122.3c87.5,0,136.8-42.3,136.8-137v-144c0-71.7-11-87.6-88.1-114.7L2717,980.7z M3439.4,1421.7h-60.3
	l-317.6-354.6v231c0,71.8,11,87.6,88.1,114.7v8.8h-190.1v-8.7c50.4-25.3,60.9-42.9,60.9-114.7v-211.8c0-71.7-8.7-83.5-58-97v-8.8
	h148.4l287.6,321.1v-197.6c0-71.7-11-87.6-88.1-114.7v-8.8h184.4v8.7c-47.5,25.3-55.1,42.9-55.1,114.7L3439.4,1421.7z
	 M3772.8,1421.7h-214.5v-8.8c51-13.5,60.9-25.3,60.9-97v-229.4c0-71.7-9.9-83.5-60.9-97v-8.8h211.6v8.7
	c-49.3,13.5-57.9,25.3-57.9,97v229.4c0,71.7,9.8,83.5,60.9,97V1421.7z M4026.1,1421.7L3855.7,1053c-17.9-38.8-27.2-49.4-54-63.6
	v-8.8h197.2v8.8c-48.7,15.3-56.2,28.2-40,64.1l133.9,296.4l125.7-280.5c16.2-36.4,6.3-58.2-70.8-80v-8.8h178.6v8.8
	c-29,14.1-38.8,24.7-56.9,63.5l-170.2,368.8H4026.1z M4352.6,980.7h433.6l14.5,152.3h-8.7c-57.4-102.9-87.5-113.5-143.8-113.5h-142
	v156.4h92.2c26.7,0,40-7.1,82.3-83.5h8.7v205.8h-8.7c-42.3-76.4-55.7-83.5-82.3-83.5h-92.2v168.2h139.2
	c61.4,0,94.5-16.5,153.6-125.1h8.7l-15.7,164.1h-439.5v-8.9c51-13.5,60.9-25.3,60.9-97v-229.4c0-71.7-9.9-83.5-60.9-97V980.7z
	 M5106.3,1412.9v8.8h-220.4v-8.8c51-13.5,60.9-25.3,60.9-97v-229.4c0-71.7-9.9-83.5-60.9-97v-8.8h251c146.1,0,218,41.8,218,113.5
	c0,51.8-53.3,89.4-143.8,99.4c61.5,9.4,89.3,39.4,114.8,95.3l34.2,74.1c13.9,30,26.1,40,58.6,50v8.8h-77.1
	c-52.2,0-67.8-14.1-85.8-60l-31.3-80c-22-56.4-38.3-68.2-90.4-68.2h-94.4v102.3C5039.6,1388.2,5049.6,1399.3,5106.3,1412.9z
	 M5253.6,1097.1c0-55.3-39.4-77.6-122.4-77.6h-91.6v155.2h91.6C5214.1,1174.7,5253.6,1152.4,5253.6,1097.1z M5904.1,1287.6
	c0,79.4-81.7,140-219.1,140c-59.1,0-122.9-12.4-172.2-35.3l-33,32.4h-8.7l-17.4-178.8h8.8c69.6,97.6,155.4,149.4,236.6,149.4
	c93.3,0,135.1-34.7,135.1-70.5c0-27.1-18.5-51.8-78.3-62.9l-138-26.5c-106.8-20.6-149.5-65.3-149.5-124.7
	c0-71.7,67.3-135.8,203.5-135.8c50.4,0,103.8,11.2,156.6,32.3l29.6-29.4h8.7l15.1,161.2h-8.9c-72.5-95.9-144.4-131.7-208.8-131.7
	c-91.6,0-129.3,34.7-129.3,67.6c0,29.4,21.4,52.9,77.7,63.5l142,26.5C5861.1,1184.7,5904,1228.8,5904.1,1287.6L5904.1,1287.6z
	 M6173.7,1421.7h-214.5v-8.8c51-13.5,60.9-25.3,60.9-97v-229.4c0-71.7-9.9-83.5-60.9-97v-8.8h214.5v8.7c-51,13.5-60.9,25.3-60.9,97
	v229.4c0,71.7,9.9,83.5,60.9,97V1421.7z M6249.6,980.7h444.1l15.1,158.2h-8.7c-57.4-102.9-88.1-119.4-144.4-119.4h-37.6v296.4
	c0,72.3,9.8,83.5,66.7,97v8.8h-226.1v-8.8c56.9-13.5,66.7-24.7,66.7-97v-296.4h-37.7c-56.2,0-87,16.5-144.4,119.4h-8.7L6249.6,980.7
	z M6890.2,1421.7v-8.8c56.9-13.5,66.7-24.7,66.7-97v-62.4L6810.7,1053c-24.3-32.9-43.5-48.8-74.2-63.5v-8.8h204.7v8.7
	c-45.8,13.5-47,31.8-22.6,64.1l117.1,157.6l104-139.3c24.9-34.1,19.1-61.2-51.6-82.3v-8.8h182.1v8.7c-31.9,15.3-52.8,33.5-74.2,63.5
	l-146.1,200.5v62.3c0,72.3,9.9,83.5,66.7,97v8.8L6890.2,1421.7z"/>
<linearGradient id="SVGID_1_" gradientUnits="userSpaceOnUse" x1="-560.5145" y1="1215.7991" x2="692.7045" y2="775.4761" gradientTransform="matrix(1 0 0 -1 0 1594)">
	<stop  offset="0" style="stop-color:#FEEEB6"/>
	<stop  offset="1" style="stop-color:#B49248"/>
</linearGradient>
<path class="st1" d="M410.1,0.2H0.6V19c122.6,83.9,181.5,148.9,257.8,312.9l589.4,1260.2h264.3L410.1,0.2z"/>
<linearGradient id="SVGID_00000145033112236608370950000010838993812112714116_" gradientUnits="userSpaceOnUse" x1="438.4629" y1="2061.9275" x2="1393.7999" y2="-216.8993" gradientTransform="matrix(1 0 0 -1 0 1594)">
	<stop  offset="0" style="stop-color:#FEEEB6"/>
	<stop  offset="1" style="stop-color:#B49248"/>
</linearGradient>
<path style="fill:url(#SVGID_00000145033112236608370950000010838993812112714116_);" d="M1112.1,1592.1v-556.4L786.8,338.1
	C710.4,175.4,730.4,92.8,859.3,19V0.2H410.1L1112.1,1592.1z"/>
<linearGradient id="SVGID_00000129182469031115097730000011028298618625200773_" gradientUnits="userSpaceOnUse" x1="1440.2623" y1="1665.3818" x2="1899.0623" y2="-82.8756" gradientTransform="matrix(1 0 0 -1 0 1594)">
	<stop  offset="0" style="stop-color:#FEEEB6"/>
	<stop  offset="1" style="stop-color:#B49248"/>
</linearGradient>
<path style="fill:url(#SVGID_00000129182469031115097730000011028298618625200773_);" d="M1814.2,0.2h409.5V19
	c-122.6,83.8-181.5,148.9-257.8,312.9l-589.5,1260.2h-264.3L1814.2,0.2z"/>
<linearGradient id="SVGID_00000067202680801114617500000015115926075781705405_" gradientUnits="userSpaceOnUse" x1="750.5099" y1="1655.0289" x2="1594.606" y2="639.8094" gradientTransform="matrix(1 0 0 -1 0 1594)">
	<stop  offset="0" style="stop-color:#FEEEB6"/>
	<stop  offset="1" style="stop-color:#B49248"/>
</linearGradient>
<path style="fill:url(#SVGID_00000067202680801114617500000015115926075781705405_);" d="M1112.2,1592.1v-556.4l325.4-697.6
	c76.3-162.7,56.3-245.3-72.6-319.1V0.2h449.3L1112.2,1592.1z"/>
</svg>
